<?xml version="1.0" encoding="UTF-8" standalone="no"?>
<svg width="19px" height="21px" viewBox="0 0 19 21" version="1.1" xmlns="http://www.w3.org/2000/svg" xmlns:xlink="http://www.w3.org/1999/xlink">
    <!-- Generator: Sketch 40 (33762) - http://www.bohemiancoding.com/sketch -->
    <title>Page 1</title>
    <desc>Created with Sketch.</desc>
    <defs></defs>
    <g id="Page-1" stroke="none" stroke-width="1" fill="none" fill-rule="evenodd">
        <g transform="translate(-2.000000, -1.000000)">
            <polygon id="Stroke-1" stroke-opacity="0.00784313771" stroke="#000000" stroke-width="1.33333335e-11" points="0 0 23.9999985 0 23.9999985 23.9999985 0 23.9999985"></polygon>
            <path d="M3.99999976,9.9999994 L3.99999976,16.999999 L6.99999958,16.999999 L6.99999958,9.9999994 L3.99999976,9.9999994 L3.99999976,9.9999994 Z M9.9999994,9.9999994 L9.9999994,16.999999 L12.9999992,16.999999 L12.9999992,9.9999994 L9.9999994,9.9999994 L9.9999994,9.9999994 Z M1.99999988,21.9999987 L20.9999987,21.9999987 L20.9999987,18.9999989 L1.99999988,18.9999989 L1.99999988,21.9999987 L1.99999988,21.9999987 Z M15.999999,9.9999994 L15.999999,16.999999 L18.9999989,16.999999 L18.9999989,9.9999994 L15.999999,9.9999994 L15.999999,9.9999994 Z M11.4999993,0.99999994 L1.99999988,5.99999964 L1.99999988,7.99999952 L20.9999987,7.99999952 L20.9999987,5.99999964 L11.4999993,0.99999994 L11.4999993,0.99999994 Z" id="Fill-2" fill="#000000"></path>
        </g>
    </g>
</svg>